<svg width="10" height="21" viewBox="0 0 10 21" fill="none" xmlns="http://www.w3.org/2000/svg">
<path d="M3.82149 20.0118C4.13405 20.3244 4.55797 20.5 5 20.5C5.44203 20.5 5.86595 20.3244 6.17851 20.0118L9.51184 16.6785C10.1627 16.0276 10.1627 14.9724 9.51185 14.3215C8.86097 13.6706 7.8057 13.6706 7.15482 14.3215L6.66667 14.8096L6.66667 2.16667C6.66667 1.24619 5.92048 0.5 5 0.5C4.07953 0.499999 3.33334 1.24619 3.33334 2.16667L3.33333 14.8096L2.84518 14.3215C2.19431 13.6706 1.13903 13.6706 0.488157 14.3215C-0.162718 14.9724 -0.162718 16.0276 0.488155 16.6785L3.82149 20.0118Z" fill="white"/>
</svg>
