<svg width="10" height="21" viewBox="0 0 10 21" fill="none" xmlns="http://www.w3.org/2000/svg">
<path d="M6.17851 0.988156C5.86595 0.675595 5.44203 0.5 5 0.5C4.55797 0.5 4.13405 0.675595 3.82149 0.988155L0.488156 4.32149C-0.162718 4.97236 -0.162719 6.02764 0.488155 6.67851C1.13903 7.32938 2.1943 7.32939 2.84518 6.67851L3.33333 6.19036V18.8333C3.33333 19.7538 4.07953 20.5 5 20.5C5.92047 20.5 6.66667 19.7538 6.66667 18.8333V6.19036L7.15482 6.67851C7.8057 7.32939 8.86097 7.32939 9.51184 6.67851C10.1627 6.02764 10.1627 4.97236 9.51185 4.32149L6.17851 0.988156Z" fill="white"/>
</svg>
