<svg width="47" height="50" viewBox="0 0 47 50" fill="none" xmlns="http://www.w3.org/2000/svg">
<path fill-rule="evenodd" clip-rule="evenodd" d="M43.6672 19.8532C43.6672 19.8532 38.6132 14.8227 32.6802 18.1967C33.9714 17.0478 34.9522 15.5933 35.5325 13.9672C36.1127 12.341 36.2737 10.5953 36.0007 8.89077C34.7067 -0.366421 23.4512 0.0111643 23.4512 0.0111643C23.4512 0.0111643 12.5497 -0.683126 10.9016 8.87858C10.7583 10.6049 11.0004 12.3415 11.6105 13.9633C12.2205 15.585 13.1834 17.0517 14.4297 18.2576C8.47229 14.7496 3.35725 19.8532 3.35725 19.8532C1.18739 22.1629 -0.0138745 25.2139 0.000120931 28.3796C0.000120931 35.1763 4.35828 40.4748 12.0736 40.4748C13.6633 40.4494 15.228 40.075 16.6563 39.3782C18.0847 38.6814 19.3418 37.6793 20.3382 36.4431C20.3382 36.4431 21.8398 39.6709 19.3128 44.738C18.4224 46.6013 16.9126 48.0992 15.0401 48.9768L16.0777 50C18.4191 48.9378 20.9336 48.3065 23.5 48.1364C26.0649 48.2988 28.5793 48.9219 30.9223 49.9757L31.9599 48.9525C30.0375 48.045 28.4952 46.4932 27.6018 44.5675C25.1602 39.5857 26.6618 36.4187 26.6618 36.4187C27.6582 37.655 28.9153 38.6571 30.3437 39.3539C31.772 40.0507 33.3367 40.4251 34.9264 40.4505C42.6295 40.4505 46.9999 35.152 46.9999 28.3552C47.0142 25.2013 45.8223 22.1606 43.6672 19.8532Z" fill="black"/>
</svg>
